<?xml version="1.0" standalone="no"?>
<!DOCTYPE svg PUBLIC "-//W3C//DTD SVG 20010904//EN"
 "http://www.w3.org/TR/2001/REC-SVG-20010904/DTD/svg10.dtd">
<svg version="1.0" xmlns="http://www.w3.org/2000/svg"
 width="794.000000pt" height="794.000000pt" viewBox="0 0 794.000000 794.000000"
 preserveAspectRatio="xMidYMid meet">
    <rect width="100%" height="100%" fill="#000000"/>

<g transform="translate(0.000000,794.000000) scale(0.100000,-0.100000)"
fill="#FFFFFF" stroke="none">
<path d="M3273 7411 c-17 -11 -34 -29 -38 -41 -10 -30 29 -103 131 -245 112
-156 140 -216 153 -330 13 -104 34 -1627 29 -2068 -2 -203 -7 -300 -14 -307
-18 -18 -114 -27 -590 -56 -357 -22 -520 -28 -874 -28 -623 -1 -967 24 -1211
89 -200 54 -313 72 -333 56 -9 -7 -16 -21 -16 -30 0 -23 44 -91 114 -175 92
-112 100 -137 100 -301 l1 -140 -42 -86 c-24 -47 -49 -117 -58 -155 -71 -328
-75 -365 -49 -402 31 -45 125 -16 269 83 215 148 352 187 900 255 94 12 235
34 315 50 241 48 246 48 1005 80 132 5 291 10 354 10 l114 0 -8 -92 c-4 -51
-9 -628 -10 -1283 -2 -835 -7 -1205 -14 -1240 -7 -27 -38 -131 -71 -230 -77
-234 -79 -252 -26 -284 58 -36 96 -29 330 58 56 21 73 22 245 19 l186 -4 143
-47 c165 -53 250 -72 287 -63 39 10 103 73 114 113 15 54 -5 89 -105 179 -49
43 -103 94 -121 112 -78 79 -135 193 -153 307 -13 84 -48 759 -55 1060 -3 138
-12 306 -20 375 -19 163 -20 219 -11 565 5 171 4 329 -2 385 -5 52 -6 99 -2
103 13 15 1336 -32 1635 -58 248 -22 342 -35 721 -105 428 -79 460 -89 628
-193 71 -44 120 -49 156 -15 22 20 23 26 17 117 -3 53 -19 164 -36 246 -39
194 -54 356 -49 514 l4 126 57 133 c32 76 57 148 57 168 0 37 -28 73 -57 75
-81 4 -154 -15 -306 -82 -113 -51 -264 -106 -324 -119 -101 -23 -330 -40 -654
-50 -189 -6 -434 -15 -544 -20 -110 -6 -443 -13 -740 -17 -513 -6 -541 -5
-555 12 -12 15 -15 56 -14 239 1 192 4 242 27 378 31 179 35 256 47 948 9 527
12 560 80 846 50 210 96 298 225 434 82 86 97 110 85 131 -15 23 -138 14 -295
-21 -218 -48 -428 -80 -575 -87 -154 -7 -158 -6 -325 69 -131 59 -186 68 -232
39z"/>
<path d="M5213 7150 c-64 -13 -99 -36 -118 -76 -23 -49 -31 -145 -15 -183 23
-56 114 -65 208 -20 37 18 42 25 42 54 0 18 -7 49 -15 68 -20 48 -19 54 8 61
52 13 382 -42 472 -80 41 -17 49 -40 37 -107 -8 -42 -7 -49 10 -58 10 -6 31
-9 46 -7 23 3 28 9 32 43 3 22 9 46 13 53 13 19 72 15 212 -17 493 -112 501
-113 593 -110 79 4 93 7 125 32 20 15 42 37 48 49 32 60 -9 171 -75 202 -21
10 -60 16 -104 16 -61 0 -75 -4 -99 -24 -26 -22 -28 -30 -28 -93 l0 -68 -36
-3 c-63 -5 -483 74 -533 100 -17 9 -16 13 17 46 45 48 62 81 49 94 -17 17 -53
2 -107 -43 -77 -64 -84 -65 -184 -23 -228 95 -242 98 -406 101 -82 1 -169 -2
-192 -7z"/>
<path d="M1231 7080 c-85 -18 -115 -52 -130 -148 -18 -110 3 -150 81 -159 58
-7 116 10 158 46 l34 30 -22 46 c-12 25 -22 57 -22 72 l0 26 83 -6 c147 -12
403 -64 434 -89 7 -6 13 -42 15 -86 3 -82 10 -91 62 -78 19 5 25 16 32 58 l9
53 40 -2 c22 -1 96 -16 165 -33 159 -38 442 -101 500 -111 60 -10 179 7 210
30 37 27 70 80 70 113 0 37 -33 101 -65 126 -28 22 -105 42 -161 42 -25 0 -44
-9 -71 -33 l-36 -34 10 -52 c15 -73 1 -85 -86 -78 -76 7 -353 60 -429 82 -61
19 -65 32 -19 81 40 45 50 61 42 74 -13 21 -55 9 -100 -30 -89 -77 -103 -77
-298 7 l-132 58 -165 2 c-91 1 -185 -2 -209 -7z"/>
<path d="M4806 6631 c-24 -26 -40 -117 -32 -175 10 -65 41 -96 96 -96 23 0 50
-5 61 -10 26 -14 62 -89 149 -309 83 -212 86 -238 44 -372 -26 -83 -113 -306
-224 -574 -32 -77 -61 -152 -65 -166 -3 -14 -26 -50 -50 -79 -84 -102 -70
-134 60 -145 107 -9 209 2 237 25 17 14 23 33 28 86 4 43 24 116 52 194 25 69
56 172 68 230 31 144 49 176 87 152 16 -10 27 -41 56 -163 14 -57 46 -165 71
-239 24 -74 47 -160 51 -191 4 -31 10 -61 14 -67 13 -21 122 -35 218 -28 109
7 120 11 130 39 10 32 6 46 -36 107 -48 71 -87 158 -206 465 -53 138 -112 287
-131 332 -59 142 -53 181 91 533 72 175 66 167 130 175 70 8 103 35 116 94 13
58 2 145 -23 176 -17 22 -27 25 -91 25 -51 0 -82 -6 -114 -21 -92 -45 -184
-201 -233 -399 -36 -146 -40 -160 -55 -160 -20 0 -30 23 -50 115 -48 221 -174
440 -264 458 -19 4 -64 7 -101 7 -52 0 -71 -4 -84 -19z"/>
<path d="M6355 6583 c-127 -95 -190 -172 -290 -355 l-47 -88 4 -247 c3 -217 6
-252 22 -282 10 -18 24 -56 33 -83 8 -28 63 -150 123 -272 100 -204 177 -385
211 -496 16 -50 30 -57 124 -59 l50 -1 106 108 c91 91 113 121 154 201 61 122
95 255 95 370 0 141 -29 166 -137 116 -106 -48 -121 -75 -133 -246 -6 -75 -17
-139 -31 -176 -11 -32 -24 -73 -29 -91 -10 -41 -40 -76 -53 -63 -11 11 -59
145 -153 431 -90 270 -117 407 -118 585 -1 126 2 150 27 235 32 108 86 223
127 272 28 33 28 33 49 14 55 -49 100 -170 126 -334 13 -82 19 -101 42 -120
21 -19 33 -22 62 -17 57 11 132 56 164 100 35 49 33 72 -18 175 -21 41 -49 97
-62 124 -29 59 -118 179 -162 221 -30 28 -39 30 -120 33 l-87 4 -79 -59z"/>
<path d="M1204 6577 c-26 -23 -26 -23 -15 -93 9 -51 12 -281 9 -879 -3 -754
-4 -813 -21 -848 -21 -45 -15 -71 21 -95 36 -23 261 -25 307 -2 48 24 53 58
20 121 l-29 54 -9 801 -8 801 32 46 c37 53 35 92 -7 107 -14 6 -81 10 -149 10
-115 0 -126 -2 -151 -23z"/>
<path d="M2209 6532 c-114 -92 -210 -208 -260 -312 -69 -141 -70 -148 -76
-360 l-5 -195 47 -130 c26 -71 89 -214 141 -316 107 -216 159 -335 200 -468
33 -107 38 -111 140 -111 l65 0 105 102 c96 93 109 110 164 219 69 136 91 219
93 361 2 84 -1 100 -19 125 -29 39 -64 40 -137 4 -111 -54 -115 -61 -132 -240
-9 -101 -20 -155 -38 -202 -14 -35 -29 -77 -33 -92 -18 -76 -62 24 -200 458
-55 172 -81 294 -96 450 -12 128 -9 148 40 326 18 64 90 210 117 238 42 43
103 -77 140 -272 32 -170 44 -187 125 -187 54 0 116 35 169 95 28 32 32 44 28
75 -11 88 -131 308 -233 429 l-59 70 -102 0 -102 1 -82 -68z"/>
<path d="M6191 3161 c-21 -4 -42 -17 -54 -34 l-21 -27 24 -53 c42 -94 90 -248
107 -343 21 -119 12 -156 -52 -209 -50 -40 -56 -62 -24 -91 15 -14 40 -20 94
-22 86 -5 134 9 180 50 64 56 75 85 90 237 14 151 31 203 85 261 33 35 57 38
92 10 32 -25 48 -86 48 -182 0 -97 -29 -157 -108 -224 -347 -297 -460 -412
-537 -546 l-56 -99 -5 -227 -5 -227 50 -102 c28 -57 51 -106 51 -111 0 -5 -23
-35 -50 -66 -28 -32 -48 -62 -45 -67 4 -5 106 -9 237 -9 l231 0 -6 40 c-3 22
-31 91 -62 153 -39 76 -63 140 -76 199 -10 47 -23 98 -29 113 -13 35 -13 75 1
75 6 0 23 -8 37 -18 15 -11 41 -24 58 -29 37 -13 55 -2 80 51 41 85 95 93 164
27 50 -47 61 -90 67 -246 5 -119 -7 -236 -34 -342 l-5 -23 179 0 c118 0 183 4
190 11 8 8 4 29 -15 78 l-27 66 -3 874 -3 873 33 64 c31 61 32 65 18 91 l-16
28 -424 1 c-234 1 -440 -1 -459 -5z m559 -787 c6 -14 10 -126 10 -250 0 -262
3 -255 -97 -204 -79 41 -126 42 -214 6 -38 -15 -67 -22 -73 -16 -25 25 40 165
129 279 65 84 202 211 227 211 4 0 13 -12 18 -26z"/>
<path d="M5305 3098 c-63 -70 -95 -126 -156 -280 -22 -56 -43 -107 -46 -111
-14 -23 -23 28 -24 138 -1 66 -4 154 -8 195 -6 73 -7 75 -41 92 -28 14 -61 18
-157 18 l-123 0 0 -78 c0 -76 1 -78 30 -95 l30 -18 0 -868 0 -868 -30 -6 c-28
-6 -30 -9 -30 -56 0 -27 -3 -56 -6 -65 -5 -14 11 -16 145 -16 147 0 151 0 166
24 13 19 17 68 21 242 3 121 7 234 10 252 5 35 21 42 31 15 3 -10 27 -72 53
-138 56 -144 81 -229 89 -310 8 -82 15 -85 217 -85 138 0 163 2 168 16 12 31
5 50 -49 129 -41 60 -78 139 -151 320 -184 460 -244 636 -244 719 0 49 6 69
60 206 23 58 49 123 57 145 24 67 85 209 95 222 5 7 37 15 70 19 90 10 119 39
124 124 3 36 -1 90 -8 120 l-13 55 -112 3 -111 3 -57 -63z"/>
<path d="M1078 3084 c-5 -4 -8 -43 -8 -86 l0 -78 35 -17 c19 -9 37 -23 40 -32
4 -9 3 -402 -1 -873 l-7 -856 -34 -7 -34 -6 3 -67 3 -67 140 -3 c144 -3 190 6
199 37 13 48 17 144 26 660 5 311 13 568 18 573 10 10 33 -8 155 -116 43 -38
92 -90 109 -114 54 -78 59 -119 64 -542 3 -212 7 -404 10 -427 8 -68 19 -73
154 -73 141 0 156 8 145 74 -4 23 -9 408 -11 856 -5 783 -4 848 23 1087 5 39
3 43 -29 59 -42 22 -172 31 -222 14 -27 -9 -42 -22 -58 -53 -20 -41 -21 -50
-14 -297 6 -255 3 -320 -17 -320 -20 0 -274 265 -297 310 -18 35 -25 71 -31
164 -13 184 -30 199 -224 204 -71 2 -133 0 -137 -4z"/>
<path d="M2707 3083 c-42 -7 -58 -38 -45 -93 14 -62 22 -1255 10 -1585 -7
-204 -13 -268 -26 -298 -19 -44 -13 -83 18 -99 30 -17 241 -23 294 -9 69 19
81 75 27 139 l-24 29 -4 884 -5 883 34 45 c40 52 41 63 12 91 -20 18 -34 20
-142 19 -67 -1 -133 -4 -149 -6z"/>
</g>
</svg>
